# xmcd
#
# Track frame offsets:
#	150
#	18250
#	38750
#	55280
#	74659
#	89718
#	114024
#	131579
#	144062
#	162289
#	174307
#	191382
#	213529
#	232732
#	241375
#
# Disc length: 3424 seconds
#
# Revision: 20
# Processed by: cddbd v1.5PL3 Copyright (c) Steve Scherf et al.
# Submitted via: dBpowerAMP V4.0
#
DISCID=c30d5e0f
DTITLE=RHCP - Californication
DYEAR=1999
DGENRE=Rock
TTITLE0=Around The World
TTITLE1=Parallel Universe
TTITLE2=Scar Tissue
TTITLE3=Otherside
TTITLE4=Get On Top
TTITLE5=Californication
TTITLE6=Easily
TTITLE7=Porcelain
TTITLE8=Emit Remmus
TTITLE9=I Like Dirt
TTITLE10=This Velvet Glove
TTITLE11=Savior
TTITLE12=Purple Stain
TTITLE13=Right On Time
TTITLE14=Road Trippin'
EXTD=
EXTT0=
EXTT1=
EXTT2=
EXTT3=
EXTT4=
EXTT5=
EXTT6=
EXTT7=
EXTT8=
EXTT9=
EXTT10=
EXTT11=
EXTT12=
EXTT13=
EXTT14=
PLAYORDER=
